<svg id="visual" viewBox="0 0 900 600" width="900" height="600" xmlns="http://www.w3.org/2000/svg" xmlns:xlink="http://www.w3.org/1999/xlink" version="1.1"><rect x="0" y="0" width="900" height="600" fill="#001220"></rect><defs><linearGradient id="grad1_0" x1="33.3%" y1="100%" x2="100%" y2="0%"><stop offset="20%" stop-color="#001220" stop-opacity="1"></stop><stop offset="80%" stop-color="#001220" stop-opacity="1"></stop></linearGradient></defs><defs><linearGradient id="grad2_0" x1="0%" y1="100%" x2="66.7%" y2="0%"><stop offset="20%" stop-color="#001220" stop-opacity="1"></stop><stop offset="80%" stop-color="#001220" stop-opacity="1"></stop></linearGradient></defs><g transform="translate(900, 600)"><path d="M-324.5 0C-298 -33.3 -271.5 -66.6 -259.6 -107.5C-247.8 -148.4 -250.6 -196.9 -229.5 -229.5C-208.3 -262 -163.2 -278.8 -120.9 -291.9C-78.7 -305.1 -39.3 -314.8 0 -324.5L0 0Z" fill="#5a5856"></path></g><g transform="translate(0, 0)"><path d="M324.5 0C285.6 28.2 246.7 56.5 236.5 98C226.3 139.5 244.7 194.3 229.5 229.5C214.2 264.7 165.2 280.3 121.3 292.9C77.4 305.4 38.7 315 0 324.5L0 0Z" fill="#5a5856"></path></g></svg>