<svg id="visual" viewBox="0 0 960 540" width="960" height="540" xmlns="http://www.w3.org/2000/svg" xmlns:xlink="http://www.w3.org/1999/xlink" version="1.1"><rect x="0" y="0" width="960" height="540" fill="#222"></rect><path d="M0 372L137 353L274 364L411 383L549 384L686 357L823 388L960 328L960 541L823 541L686 541L549 541L411 541L274 541L137 541L0 541Z" fill="#373635"></path><path d="M0 405L137 404L274 396L411 364L549 404L686 372L823 410L960 385L960 541L823 541L686 541L549 541L411 541L274 541L137 541L0 541Z" fill="#464645"></path><path d="M0 397L137 437L274 396L411 459L549 460L686 426L823 415L960 451L960 541L823 541L686 541L549 541L411 541L274 541L137 541L0 541Z" fill="#565655"></path><path d="M0 464L137 442L274 486L411 454L549 480L686 437L823 442L960 460L960 541L823 541L686 541L549 541L411 541L274 541L137 541L0 541Z" fill="#676766"></path><path d="M0 484L137 505L274 487L411 503L549 473L686 503L823 474L960 498L960 541L823 541L686 541L549 541L411 541L274 541L137 541L0 541Z" fill="#787878"></path></svg>