<?xml version="1.0" standalone="no"?><svg xmlns="http://www.w3.org/2000/svg" viewBox="0 0 1440 320"><path fill="#222" fill-opacity="1" d="M0,256L0,64L80,64L80,192L160,192L160,160L240,160L240,224L320,224L320,64L400,64L400,128L480,128L480,0L560,0L560,224L640,224L640,192L720,192L720,0L800,0L800,192L880,192L880,96L960,96L960,288L1040,288L1040,32L1120,32L1120,224L1200,224L1200,0L1280,0L1280,160L1360,160L1360,256L1440,256L1440,320L1360,320L1360,320L1280,320L1280,320L1200,320L1200,320L1120,320L1120,320L1040,320L1040,320L960,320L960,320L880,320L880,320L800,320L800,320L720,320L720,320L640,320L640,320L560,320L560,320L480,320L480,320L400,320L400,320L320,320L320,320L240,320L240,320L160,320L160,320L80,320L80,320L0,320L0,320Z"></path></svg>