<?xml version="1.0" standalone="no"?><svg xmlns="http://www.w3.org/2000/svg" viewBox="0 0 1440 320"><path fill="#222" fill-opacity="1" d="M0,256L21.8,224C43.6,192,87,128,131,85.3C174.5,43,218,21,262,58.7C305.5,96,349,192,393,229.3C436.4,267,480,245,524,202.7C567.3,160,611,96,655,64C698.2,32,742,32,785,53.3C829.1,75,873,117,916,144C960,171,1004,181,1047,170.7C1090.9,160,1135,128,1178,128C1221.8,128,1265,160,1309,192C1352.7,224,1396,256,1418,272L1440,288L1440,0L1418.2,0C1396.4,0,1353,0,1309,0C1265.5,0,1222,0,1178,0C1134.5,0,1091,0,1047,0C1003.6,0,960,0,916,0C872.7,0,829,0,785,0C741.8,0,698,0,655,0C610.9,0,567,0,524,0C480,0,436,0,393,0C349.1,0,305,0,262,0C218.2,0,175,0,131,0C87.3,0,44,0,22,0L0,0Z"></path></svg>